# xmcd
#
# Track frame offsets: 
#        183
#        15798
#        31955
#        45198
#        67288
#        79493
#        92743
#        110973
#        125543
#        141080
#        154795
#        175098
#        191835
#
# Disc length: 2756 seconds
#
# Revision: 3
# Processed by: cddbd v1.5.2PL0 Copyright (c) Steve Scherf et al.
# Submitted via: ExactAudioCopy v0.99pb4
#
DISCID=ae0ac20d
DTITLE=Omar and The Howlers - Courts Of Lulu
DYEAR=1992
DGENRE=Rock
TTITLE0=Rose Tattoo
TTITLE1=Do It For Daddy
TTITLE2=False Faces
TTITLE3=Pushin' Fire
TTITLE4=Booger Boy
TTITLE5=Jumpin' The Gun
TTITLE6=I've Tried
TTITLE7=Firewalker
TTITLE8=Special Love
TTITLE9=Scared To Speak
TTITLE10=I'm Wild About You
TTITLE11=Moon Bit Fool
TTITLE12=South Congress Blues
EXTD=Label: Provogue Music\nPRD 70452
EXTT0=
EXTT1=
EXTT2=
EXTT3=
EXTT4=
EXTT5=
EXTT6=
EXTT7=
EXTT8=
EXTT9=
EXTT10=
EXTT11=
EXTT12=
PLAYORDER=
